<svg xmlns="http://www.w3.org/2000/svg" version="1.1" xlink="http://www.w3.org/1999/xlink" xmlns:svgjs="http://svgjs.com/svgjs" width="300" height="43.420679216725"><defs id="SvgjsDefs1489"/><g id="SvgjsG1490" transform="scale(1.4189764449910132)" opacity="1"><g id="SvgjsG1491" class="hwbMb2kFdE" transform="translate(0, 0) scale(0.306)" light-content="false" fill="#d64019"><path d="M24 0h76v76c0 13.255-10.745 24-24 24H0V24C0 10.745 10.745 0 24 0z"/></g><g id="SvgjsG1492" class="UEz-Z1pWXD" transform="translate(3.316519562387691, 3.4969108899160557) scale(0.237628067409553)" light-content="true" fill="#ffffff"><path d="M52.9 33.1l3.8 6.8c3.2-.1 6.9.1 10.8 0L63.6 33c-3.8.2-7.5 0-10.7.1zm-17 8.3l3.8 6.8c2.3-2.2 4.9-4.4 7.5-5.9l-3.8-6.8c-2.6 1.6-5.2 3.8-7.5 5.9zM63.6 33c3.4-.1 6.8-.5 10-1.5l-3.8-6.8c-3.2 1-6.6 1.4-10 1.5l3.8 6.8zm-18.9-6.4c-1.6.3-3.3 1.1-5.1 2.1l3.8 6.8c1.7-1 3.4-1.8 5.1-2.1 1.3-.2 2.8-.3 4.4-.4l-3.8-6.8c-1.6.1-3.1.1-4.4.4zm-8.8-4.8c-2.6 1.4-5.3 3.5-7.6 5.7l3.9 7c2.3-2.2 4.9-4.4 7.5-5.9l-3.8-6.8z"/><path d="M59.9 26.2l-3.5-6.4c-3.8.2-7.5 0-10.8 0l3.5 6.4c3.2 0 6.9.1 10.8 0z"/><path d="M71.3 4.6l-1 1.2c-4.2 4.9-8.2 5.9-13.3 5.9-2 0-4.1-.2-6.4-.3-2.1-.2-4.2-.3-6.5-.4-6.5-.2-13.5 3.3-20.9 10.2-2.1 1.9-4.1 4.1-6 6.4l-.5.6L36.4 64l1-1.4c3.1-4.3 13-15.4 20.5-15.4h.2c2 .1 4.1.2 6 .3 2.3.2 4.7.3 7 .3 5.5 0 9.7-1 13.6-3.1 2-1.1 3.8-2.5 5.6-4.2l.6-.6L71.3 4.6zM83.6 43c-1 .5-1.9 1-3 1.3l-3.2-5.9c-3.2 1-6.6 1.4-10 1.5l3.2 5.9c-2.2 0-4.3-.2-6.5-.3-1.5-.1-3.1-.2-4.7-.3l-2.9-5.3c-1.6 0-3.1.1-4.4.4-1.6.3-3.3 1.1-5.1 2.1l2.9 5.3c-2.7 1.6-5.3 3.8-7.5 5.9l-2.9-5.3c-2.5 2.4-4.6 4.7-6 6.3l-3.8-6.8c1.4-1.6 3.5-4 6-6.3l-3.8-6.8c-2.5 2.4-4.6 4.7-6 6.3L22 33.9c1.5-1.7 3.6-4 6.1-6.2l-2.9-5.2c2.6-2.4 5.2-4.3 7.6-5.8l2.9 5.3c1.4-.8 2.9-1.4 4.2-1.6 1.5-.3 3.4-.4 5.4-.4L42 13.4c.7-.1 1.3-.1 1.9-.1 2.2.1 4.4.2 6.4.4.9.1 1.8.1 2.7.2l3.3 5.9c3.3-.2 6.7-.6 9.8-1.7l-2.7-4.9c2.5-.8 5-2.2 7.4-4.7l2.7 4.8c-2.1 2.3-4.6 3.8-7.4 4.7l3.7 6.7c2.8-.9 5.4-2.2 7.6-4.4l3.8 6.8c-2.2 2.1-4.8 3.5-7.6 4.4l3.8 6.8c2.8-.9 5.4-2.2 7.6-4.3l3.1 5.7c-1.4 1.3-3 2.4-4.5 3.3zM13.4 27.2c-.5-.9-1.6-1.2-2.5-.7-.9.5-1.2 1.6-.7 2.5l35.7 64.8c.5.9 1.6 1.2 2.5.7.9-.5 1.2-1.6.7-2.5L13.4 27.2z"/></g><g id="SvgjsG1493" class="text" transform="translate(39.72, 26.35) scale(1)" light-content="false" fill="#454545"><path d="M0.88 0L6.32 0L8.09 -9.04L14.69 -9.04L12.85 0L18.29 0L22.71 -22.1L17.27 -22.1L15.64 -13.8L9.04 -13.8L10.74 -22.1L5.3 -22.1Z M23.46 0L28.9 0L33.32 -22.1L27.88 -22.1Z M34 0L39.44 0L40.94 -7.62L43.21 -7.62L45.76 0L51.48 0L48.18 -8.47C48.95 -8.76 49.66 -9.14 50.32 -9.6C50.98 -10.07 51.54 -10.62 52.02 -11.27C52.5 -11.92 52.86 -12.65 53.13 -13.48C53.39 -14.31 53.52 -15.23 53.52 -16.25C53.52 -17.32 53.32 -18.22 52.92 -18.97C52.52 -19.72 51.97 -20.33 51.27 -20.79C50.57 -21.26 49.74 -21.59 48.79 -21.79C47.84 -22 46.81 -22.1 45.7 -22.1L38.42 -22.1ZM41.82 -11.9L42.98 -17.82L44.95 -17.82C45.97 -17.82 46.76 -17.62 47.31 -17.24C47.87 -16.85 48.14 -16.25 48.14 -15.44C48.14 -14.37 47.79 -13.51 47.07 -12.87C46.36 -12.22 45.27 -11.9 43.79 -11.9Z M64.4 0.41C65.85 0.41 67.26 0.09 68.65 -0.54C70.03 -1.18 71.25 -2.09 72.3 -3.26C73.36 -4.44 74.21 -5.86 74.85 -7.53C75.5 -9.2 75.82 -11.06 75.82 -13.12C75.82 -14.62 75.61 -15.95 75.19 -17.12C74.77 -18.29 74.19 -19.27 73.44 -20.06C72.69 -20.85 71.79 -21.46 70.74 -21.88C69.68 -22.3 68.52 -22.51 67.25 -22.51C65.78 -22.51 64.36 -22.19 62.99 -21.56C61.61 -20.92 60.4 -20.01 59.35 -18.84C58.29 -17.66 57.44 -16.24 56.8 -14.57C56.15 -12.9 55.83 -11.04 55.83 -8.98C55.83 -7.48 56.04 -6.15 56.46 -4.98C56.88 -3.81 57.46 -2.83 58.21 -2.04C58.96 -1.25 59.86 -0.64 60.91 -0.22C61.97 0.2 63.13 0.41 64.4 0.41ZM64.67 -4.28C63.65 -4.28 62.85 -4.72 62.27 -5.59C61.69 -6.47 61.4 -7.71 61.4 -9.32C61.4 -10.59 61.57 -11.74 61.91 -12.78C62.25 -13.83 62.7 -14.72 63.24 -15.47C63.78 -16.22 64.38 -16.8 65.04 -17.2C65.7 -17.61 66.35 -17.82 66.98 -17.82C68 -17.82 68.8 -17.38 69.38 -16.51C69.96 -15.63 70.24 -14.39 70.24 -12.78C70.24 -11.51 70.07 -10.36 69.73 -9.32C69.39 -8.27 68.95 -7.38 68.41 -6.63C67.86 -5.88 67.26 -5.3 66.61 -4.9C65.95 -4.49 65.3 -4.28 64.67 -4.28Z M84.86 0.41C86.18 0.41 87.37 0.22 88.43 -0.17C89.5 -0.56 90.41 -1.08 91.15 -1.75C91.9 -2.42 92.48 -3.2 92.89 -4.08C93.3 -4.96 93.5 -5.92 93.5 -6.94C93.5 -8.23 93.27 -9.26 92.8 -10.05C92.34 -10.83 91.57 -11.55 90.51 -12.21L88.47 -13.46C87.58 -14.03 86.91 -14.47 86.45 -14.77C85.98 -15.08 85.75 -15.46 85.75 -15.91C85.75 -16.43 85.94 -16.88 86.33 -17.26C86.71 -17.63 87.3 -17.82 88.09 -17.82C88.82 -17.82 89.47 -17.63 90.05 -17.27C90.63 -16.91 91.2 -16.44 91.77 -15.88L95.17 -19.07C94.26 -20.16 93.21 -21.01 92.02 -21.61C90.83 -22.21 89.59 -22.51 88.3 -22.51C87.16 -22.51 86.11 -22.32 85.12 -21.95C84.13 -21.57 83.28 -21.06 82.55 -20.42C81.83 -19.77 81.25 -19.02 80.82 -18.16C80.39 -17.29 80.17 -16.37 80.17 -15.37C80.17 -13.99 80.46 -12.86 81.04 -12C81.62 -11.14 82.42 -10.38 83.44 -9.72L85.34 -8.53C86.11 -8.06 86.72 -7.67 87.18 -7.36C87.63 -7.06 87.86 -6.65 87.86 -6.15C87.86 -5.54 87.62 -5.07 87.16 -4.73C86.69 -4.39 86.07 -4.22 85.27 -4.22C84.41 -4.22 83.57 -4.47 82.76 -4.96C81.94 -5.46 81.24 -6.11 80.65 -6.9L76.77 -3.84C77.93 -2.3 79.21 -1.21 80.63 -0.56C82.05 0.09 83.46 0.41 84.86 0.41Z M95.88 0L101.32 0L103.09 -9.04L109.68 -9.04L107.85 0L113.29 0L117.71 -22.1L112.27 -22.1L110.64 -13.8L104.04 -13.8L105.74 -22.1L100.3 -22.1Z M118.46 0L123.9 0L128.32 -22.1L122.88 -22.1Z M129 0L133.96 0L135.46 -7.34C135.57 -7.91 135.67 -8.53 135.75 -9.2C135.82 -9.87 135.9 -10.54 135.97 -11.22C136.03 -11.9 136.1 -12.57 136.15 -13.24C136.21 -13.91 136.26 -14.53 136.31 -15.1L136.41 -15.1L137.09 -9.93L138.52 -1.9L140.56 -1.9L145.25 -9.93L148 -15.1L148.1 -15.1C147.92 -14.53 147.73 -13.92 147.53 -13.26C147.32 -12.6 147.12 -11.93 146.91 -11.25C146.71 -10.57 146.52 -9.89 146.35 -9.21C146.18 -8.53 146.04 -7.91 145.93 -7.34L144.36 0L149.46 0L153.88 -22.1L148.24 -22.1L143.07 -12.58L141.13 -8.84L141 -8.84L140.49 -12.58L139.06 -22.1L133.42 -22.1Z M162.79 -11.7C163.27 -12.76 163.7 -13.81 164.1 -14.84C164.5 -15.87 164.92 -16.93 165.38 -18.02L165.51 -18.02C165.51 -16.89 165.52 -15.82 165.55 -14.81C165.57 -13.8 165.6 -12.76 165.65 -11.7L165.72 -9.11L161.64 -9.11ZM151.5 0L157.49 0L159.77 -5.03L165.85 -5.03L165.99 0L171.7 0L169.59 -22.1L163.06 -22.1Z"/></g></g></svg>