<svg xmlns="http://www.w3.org/2000/svg" xmlns:xlink="http://www.w3.org/1999/xlink" version="1.1" x="0px" y="0px" viewBox="0 0 100 100" enable-background="new 0 0 100 100" xml:space="preserve"><g><path fill="#000000" d="M39.037,67.706c-0.529,0-1.415,0-2.405,4.005c-0.021,0.083-0.031,0.169-0.031,0.255l0.002,12.197   c0.005,0.078,0.05,0.611,0.391,1.138l-0.363,1.506c-0.02,0.081-0.03,0.165-0.03,0.249c0,1.005,0.747,1.822,1.666,1.822h1.404   c0.919,0,1.667-0.817,1.667-1.822c0-0.082-0.009-0.164-0.028-0.244l-0.336-1.426c0.292-0.435,0.398-0.929,0.388-1.289V71.966   c0-0.074-0.008-0.147-0.023-0.22C40.55,68.019,39.737,67.706,39.037,67.706z M39.217,84.194c-0.079,0.053-0.15,0.115-0.21,0.186   c-0.058-0.077-0.126-0.146-0.205-0.207c-0.035-0.026-0.061-0.093-0.071-0.093c-0.002,0-0.004,0.005-0.004,0.017V72.098   c0.083-0.327,0.178-0.658,0.274-0.968c0.083,0.305,0.164,0.629,0.234,0.948L39.217,84.194z"></path><path fill="#000000" d="M39.529,54.004h-1.126c-1.039,0-1.884,0.826-1.884,1.842v3.702c0,1.016,0.845,1.842,1.884,1.842h1.126   c1.039,0,1.884-0.826,1.884-1.842v-3.702C41.414,54.83,40.568,54.004,39.529,54.004z M39.288,59.263h-0.643v-3.132h0.643V59.263z"></path><path fill="#000000" d="M38.817,20.57c0.587,0,1.063-0.476,1.063-1.063V15.02c0-0.587-0.476-1.063-1.063-1.063   s-1.063,0.476-1.063,1.063v4.487C37.754,20.094,38.23,20.57,38.817,20.57z"></path><path fill="#000000" d="M27.661,40.542c0.903-0.181,2.611-1.096,2.611-3.267c0-2.106-2.087-3.087-3.429-3.362   c0.022-0.229,0.033-0.455,0.033-0.679c0-4.105-3.339-7.444-7.444-7.444c-3.683,0-6.75,2.689-7.342,6.206   c-2.382-0.038-4.318,1.91-4.318,4.284c0,2.361,1.921,4.283,4.283,4.283h15.398C27.522,40.563,27.592,40.556,27.661,40.542z    M12.054,38.437c-1.189,0-2.157-0.967-2.157-2.157c0-1.19,0.968-2.158,2.157-2.158c0.202,0,0.413,0.039,0.666,0.121   c0.324,0.106,0.678,0.049,0.954-0.15s0.438-0.52,0.438-0.86c0.001-2.932,2.388-5.316,5.319-5.316c2.933,0,5.318,2.386,5.318,5.318   c0,0.421-0.054,0.842-0.165,1.288c-0.071,0.287-0.02,0.591,0.142,0.838c0.162,0.248,0.419,0.417,0.71,0.466l0.892,0.152   c0.018,0.003,1.816,0.373,1.816,1.296c0,0.802-0.556,1.076-0.83,1.162H12.054z"></path><path fill="#000000" d="M93.759,49.958c-0.338-2.336-2.363-4.146-4.78-4.146c-1.66,0-3.167,0.838-4.047,2.196   c-0.227-0.034-0.449-0.051-0.669-0.051c-2.807,0-5.09,2.283-5.09,5.089c0,0.042,0.001,0.085,0.002,0.128   c-0.945,0.282-2.145,1.012-2.145,2.422c0,1.624,1.284,2.31,1.962,2.445c0.069,0.014,0.139,0.021,0.209,0.021h11.716   c0.271,0,0.545-0.041,0.832-0.123c2.219-0.232,3.939-2.122,3.939-4.356C95.688,52.11,94.963,50.77,93.759,49.958z M91.462,55.832   c-0.084,0.006-0.167,0.022-0.248,0.049c-0.116,0.038-0.213,0.056-0.297,0.056H79.359c-0.202-0.087-0.202-0.255-0.202-0.34   c0-0.127,0.446-0.361,0.814-0.431l0.567-0.097c0.292-0.05,0.55-0.219,0.711-0.467c0.162-0.248,0.214-0.552,0.142-0.839   c-0.062-0.245-0.092-0.486-0.092-0.717c0-1.634,1.329-2.963,2.963-2.963c0.276,0,0.562,0.051,0.9,0.16   c0.531,0.171,1.102-0.097,1.311-0.612c0.417-1.028,1.4-1.693,2.505-1.693c1.472,0,2.685,1.199,2.704,2.672   c0.005,0.401,0.235,0.766,0.596,0.941c0.792,0.387,1.283,1.165,1.283,2.032C93.562,54.755,92.64,55.742,91.462,55.832z"></path><path fill="#000000" d="M82.667,86.77H72.151V21.421c0-0.587-0.477-1.063-1.063-1.063H55.904c-0.013,0-0.023,0.007-0.036,0.007   c-0.013,0-0.023-0.007-0.036-0.007c-0.587,0-1.063,0.476-1.063,1.063v4.44v1.512v5.788H42.354v-8.099   c0.801-0.498,1.479-1.39,1.479-2.572v-9.999c0-3.269-1.878-6.886-2.693-7.734c-0.192-0.216-1.005-1.038-2.202-1.038   c-1.163,0-1.974,0.822-2.166,1.037c-0.814,0.847-2.691,4.462-2.691,7.735v9.999c0,1.182,0.677,2.074,1.478,2.572v20.709   c-0.774,2.578-1.336,5.128-1.36,5.238c-0.017,0.074-0.025,0.151-0.025,0.228v10.952c-0.415-0.461-0.771-0.469-1.034-0.469   c-0.639,0-1.828,0-3.331,6.867c-0.016,0.075-0.024,0.151-0.024,0.228l0.002,17.955H14.708c-0.587,0-1.063,0.477-1.063,1.063   s0.476,1.063,1.063,1.063h15.09c0.032,0.297,0.158,1.047,0.637,1.746l-0.566,1.347c-0.055,0.13-0.083,0.271-0.083,0.412   c0,1.398,0.908,2.495,2.068,2.495h2.343c1.16,0,2.069-1.097,2.069-2.495c0-0.072-0.028-0.14-0.042-0.21   c0.684,0.271,1.59,0.462,2.803,0.462c1.149,0,2.01-0.172,2.668-0.422c-0.002,0.029-0.018,0.057-0.018,0.087   c0,1.398,0.908,2.494,2.067,2.494h2.343c1.16,0,2.068-1.096,2.068-2.494c0-0.142-0.028-0.282-0.083-0.412l-0.507-1.204   c0.473-0.665,0.593-1.412,0.623-1.806h6.583v4.552c-0.005,0.034,0.001,0.068,0,0.104v0.153c0,0.037,0.018,0.067,0.021,0.104   c0.007,0.031,0.01,0.062,0.02,0.093c0.095,0.489,0.506,0.867,1.023,0.867h9.819h1.003h4.423c0.149,0,0.291-0.032,0.42-0.088   c0.384-0.16,0.654-0.538,0.654-0.98v-4.804h10.516c0.587,0,1.063-0.477,1.063-1.063S83.254,86.77,82.667,86.77z M70.024,92.642   h-2.307v-66.78c0-0.587-0.477-1.063-1.063-1.063h-9.759v-2.314h13.129V92.642z M58.702,92.642l6.889-5.511v5.511H58.702z    M65.591,77.809v5.273l-6.593-5.273H65.591z M58.702,75.682l6.889-5.511v5.511H58.702z M65.591,66.122l-6.593-5.274h6.593V66.122z    M65.591,41.524h-6.595l6.595-5.276V41.524z M65.591,43.65v5.511l-6.888-5.511H65.591z M65.591,58.721h-6.889l6.889-5.511V58.721z    M63.389,67.083h-6.493v-5.194L63.389,67.083z M56.896,69.21h6.493l-6.493,5.194V69.21z M56.896,78.85l6.493,5.193h-6.493V78.85z    M65.591,32.2l-6.595-5.275h6.595V32.2z M56.896,40.481v-5.194h6.493L56.896,40.481z M56.896,44.928l6.493,5.195h-6.493V44.928z    M63.389,52.249l-6.493,5.194v-5.194H63.389z M56.896,87.843c0-0.004,0.002-0.007,0.002-0.01s-0.002-0.006-0.002-0.01V86.17h6.493   l-6.493,5.194V87.843z M56.896,27.967l6.493,5.194h-6.493V27.967z M54.769,35.287v7.232c-0.002,0.024-0.014,0.044-0.014,0.068   c0,0.022,0.011,0.041,0.013,0.062c-0.001,0.02-0.013,0.036-0.013,0.055c0,0.021,0.013,0.039,0.014,0.06v7.358h-11.23   c-0.229-1.113-0.655-3.068-1.185-4.937v-9.899H54.769z M36.258,11.89c0.815,0.064,1.678,0.097,2.563,0.097   c0.819,0,1.631-0.029,2.415-0.085c0.157-0.011,0.301-0.061,0.431-0.132c0.024,0.242,0.041,0.483,0.041,0.722v9.343   c-0.16-0.075-0.332-0.125-0.519-0.112c-1.543,0.11-3.194,0.104-4.66-0.01c-0.113-0.009-0.218,0.015-0.321,0.039v-9.26   c0-0.201,0.012-0.403,0.029-0.607C36.244,11.885,36.25,11.89,36.258,11.89z M39.985,44.822c-0.708,0.05-1.546,0.05-2.252-0.005   c-0.017-0.001-0.031,0.006-0.047,0.006v-18.29c0.011,0.001,0.02,0.008,0.031,0.009c0.367,0.028,0.761,0.043,1.172,0.043   c0.384,0,0.756-0.014,1.103-0.039c0.085-0.006,0.159-0.041,0.237-0.066v18.374C40.147,44.841,40.07,44.816,39.985,44.822z    M40.228,24.388v0.089c-0.124-0.04-0.255-0.061-0.391-0.051c-0.619,0.044-1.347,0.043-1.958-0.004   c-0.068-0.004-0.129,0.018-0.195,0.026v-0.06c0-0.177-0.055-0.339-0.134-0.489c0.451,0.018,0.91,0.028,1.375,0.028   c0.487,0,0.965-0.031,1.447-0.051C40.288,24.031,40.228,24.202,40.228,24.388z M37.443,46.901c0.044,0.009,0.081,0.033,0.127,0.036   c0.414,0.032,0.858,0.049,1.32,0.049c0.434,0,0.853-0.016,1.244-0.043c0.167-0.012,0.316-0.069,0.452-0.148   c0.371,1.424,0.673,2.809,0.855,3.689c-0.084-0.015-0.165-0.039-0.253-0.032c-1.529,0.108-3.19,0.105-4.66-0.01   c-0.006,0-0.011,0.002-0.016,0.002C36.72,49.577,37.048,48.265,37.443,46.901z M38.357,6.173c0.091-0.103,0.364-0.328,0.618-0.328   c0.217,0,0.489,0.225,0.571,0.317c0.016,0.019,0.053,0.059,0.07,0.076c0.269,0.279,1.121,1.783,1.651,3.565   c-0.062-0.006-0.12-0.028-0.185-0.022c-1.445,0.104-3.018,0.101-4.429,0.003C37.188,8.004,38.048,6.495,38.357,6.173z    M33.934,67.715c-0.568,0.026-1.167,0.025-1.731-0.003c0.287-1.127,0.619-2.24,0.913-3.021   C33.377,65.451,33.673,66.537,33.934,67.715z M34.058,92.77h-2.066c-0.023-0.043-0.048-0.108-0.064-0.192l0.724-1.719   c0.179-0.425,0.064-0.916-0.286-1.217c-0.332-0.287-0.442-0.819-0.454-0.929V69.817c0.383,0.023,0.771,0.046,1.188,0.046   c0.375,0,0.726-0.019,1.075-0.038v19.014c-0.019,0.199-0.093,0.654-0.387,0.876c-0.388,0.293-0.527,0.812-0.339,1.26l0.675,1.603   C34.107,92.661,34.082,92.727,34.058,92.77z M39.025,90.526c-1.992,0-2.593-0.595-2.725-0.751v-0.838   c0.007-0.114,0.007-0.196,0.006-0.225V68.814c0-0.023-0.005-0.046-0.006-0.068V52.544c0.022,0.003,0.041,0.016,0.063,0.018   c0.818,0.063,1.68,0.097,2.563,0.097c0.816,0,1.628-0.029,2.414-0.085c0.098-0.007,0.184-0.044,0.272-0.075v37.305   C41.449,90.051,40.773,90.526,39.025,90.526z M45.336,90.891l0.675,1.604c-0.016,0.084-0.041,0.148-0.064,0.191h-2.065   c-0.023-0.043-0.048-0.107-0.064-0.191l0.723-1.718c0.179-0.425,0.063-0.916-0.286-1.217c-0.333-0.287-0.442-0.819-0.454-0.93   V69.815c0.398,0.025,0.805,0.048,1.239,0.048c0.359,0,0.693-0.019,1.028-0.036v18.819c0,0.007-0.008,0.693-0.393,0.983   C45.288,89.923,45.148,90.442,45.336,90.891z M44.073,67.708c0.292-1.154,0.632-2.301,0.933-3.1   c0.268,0.777,0.57,1.899,0.835,3.108C45.259,67.743,44.646,67.74,44.073,67.708z M48.195,86.77V68.731   c0-0.065-0.006-0.131-0.018-0.195c-1.291-6.9-2.499-6.9-3.147-6.9c-0.31,0-0.75,0.007-1.291,0.79V52.249h11.03v7.357   c-0.001,0.021-0.014,0.038-0.014,0.06c0,0.02,0.012,0.036,0.013,0.056c-0.001,0.021-0.013,0.04-0.013,0.062   c0,0.024,0.012,0.044,0.014,0.067v16.716c-0.001,0.021-0.014,0.038-0.014,0.06c0,0.02,0.012,0.036,0.013,0.056   c-0.001,0.021-0.013,0.04-0.013,0.062c0,0.024,0.012,0.044,0.014,0.067v8.227c-0.002,0.023-0.014,0.043-0.014,0.067   s0.012,0.044,0.014,0.067v1.596H48.195z"></path></g></svg>