<svg xmlns="http://www.w3.org/2000/svg" version="1.1" xlink="http://www.w3.org/1999/xlink" xmlns:svgjs="http://svgjs.com/svgjs" width="300" height="140.595026642984"><defs id="SvgjsDefs1445"/><g id="SvgjsG1446" transform="scale(1.3321492007104796)" opacity="1"><g id="SvgjsG1447" class="4ZVZqFKEAu" transform="translate(86.0812, 0) scale(0.6026999999999999)" light-content="false" fill="#1d4d96"><path d="M44 0l43.301 25v50L44 100 .699 75V25z"/></g><g id="SvgjsG1448" class="InRJjfpMzt" transform="translate(94.51919258219579, 12.053999999999998) scale(0.36161999999999994)" light-content="true" fill="#ffffff"><path d="M18.842 50.52c.005.202.048.394.129.579.026.062.046.122.082.179.125.209.284.4.508.536l.012.004c.004.002.005.007.009.009l29.756 17.435c.023.014.05.007.075.021.214.11.45.192.711.192.261 0 .497-.082.713-.196.027-.011.058-.007.084-.021L80.148 51.82c.229-.136.389-.331.519-.544.035-.059.057-.114.082-.177.082-.186.125-.377.132-.579 0-.043.028-.078.025-.119 0-.019-.015-.032-.019-.051a1.501 1.501 0 0 0-.2-.663L51.459.758c-.011-.02-.03-.028-.043-.047-.035-.056-.078-.1-.121-.15a1.774 1.774 0 0 0-.172-.175c-.048-.039-.091-.082-.142-.114-.02-.014-.03-.034-.05-.046-.034-.021-.071-.021-.105-.038A1.463 1.463 0 0 0 50.615.1c-.062-.022-.124-.044-.191-.057a1.088 1.088 0 0 0-.196-.021C50.192.018 50.16 0 50.124 0s-.064.018-.1.02c-.064.006-.124.007-.186.02-.071.013-.136.036-.206.059a1.421 1.421 0 0 0-.209.088c-.031.017-.066.017-.097.034-.018.011-.029.03-.046.041-.055.036-.102.08-.154.125a1.623 1.623 0 0 0-.172.17c-.039.048-.082.091-.114.142-.015.02-.034.03-.047.05l-29.755 48.93c-.129.21-.186.439-.206.672-.002.02-.016.033-.018.054-.001.038.026.074.028.115zM51.68 7.191l23.767 39.791L51.68 36.08V7.191zm-3.111 28.88L24.308 47.002 48.569 7.107v28.964zm0 3.414v25.718L23.754 50.665l24.815-11.18zm3.111 25.693V39.501l24.332 11.164L51.68 65.178z"/><path d="M80.773 55.836c-.493-.54-1.305-.647-1.935-.286L50.124 72.503 21.421 55.55a1.571 1.571 0 0 0-1.938.286 1.558 1.558 0 0 0-.124 1.955l29.495 41.555c.023.032.061.042.084.071.061.074.122.139.193.2.034.028.054.071.091.096.029.021.066.012.097.032.05.029.093.071.148.098.198.096.417.157.651.157h.01c.234 0 .452-.062.651-.157.055-.026.098-.068.148-.098.03-.021.067-.011.097-.032.037-.024.057-.067.091-.096.071-.062.133-.126.192-.2.023-.029.062-.039.084-.071l29.506-41.555a1.554 1.554 0 0 0-.124-1.955zM48.569 75.202v18.362L26.123 61.942l22.446 13.26zm3.111 18.362V75.202l22.455-13.26L51.68 93.564z"/></g><g id="SvgjsG1449" class="text" transform="translate(-0.3100000000000023, 86.57999999999998) scale(1)" light-content="false" fill="#1d4d96"><path d="M5.6 -14.56L5.6 0L10.11 0L10.11 -14.56L15.4 -14.56L15.4 -18.03L0.31 -18.03L0.31 -14.56Z M17.3 -1.99C18.82 -0.48 21.06 0.28 24.02 0.28C26.99 0.28 29.23 -0.48 30.74 -1.99C32.26 -3.5 33.01 -5.81 33.01 -8.93C33.01 -12.2 32.26 -14.58 30.76 -16.07C29.26 -17.57 27.01 -18.31 24.02 -18.31C21.02 -18.31 18.77 -17.57 17.28 -16.07C15.78 -14.58 15.04 -12.2 15.04 -8.93C15.04 -5.81 15.79 -3.5 17.3 -1.99ZM27.34 -4.86C26.64 -3.99 25.54 -3.56 24.02 -3.56C22.49 -3.56 21.38 -3.99 20.68 -4.86C19.98 -5.73 19.63 -7.08 19.63 -8.93C19.63 -10.93 19.97 -12.35 20.66 -13.19C21.35 -14.03 22.47 -14.45 24.02 -14.45C25.55 -14.45 26.67 -14.03 27.36 -13.19C28.05 -12.35 28.39 -10.93 28.39 -8.93C28.39 -7.08 28.04 -5.73 27.34 -4.86Z M36.44 0.01C37.48 0.19 38.59 0.28 39.79 0.28C42.25 0.28 44.12 -0.2 45.39 -1.15C46.66 -2.1 47.29 -3.4 47.29 -5.04C47.29 -5.99 47.14 -6.82 46.83 -7.52C46.52 -8.22 45.97 -8.84 45.18 -9.38C44.38 -9.92 43.27 -10.39 41.83 -10.78C40.77 -11.06 39.99 -11.29 39.49 -11.47C39 -11.64 38.64 -11.85 38.42 -12.08C38.19 -12.32 38.08 -12.63 38.08 -13.02C38.08 -13.64 38.36 -14.05 38.92 -14.27C39.48 -14.48 40.33 -14.59 41.47 -14.59C43.11 -14.59 44.71 -14.28 46.26 -13.66L46.26 -17.53C45.6 -17.75 44.78 -17.94 43.78 -18.09C42.78 -18.24 41.79 -18.31 40.8 -18.31C38.41 -18.31 36.59 -17.86 35.35 -16.95C34.11 -16.05 33.49 -14.73 33.49 -12.99C33.49 -12.02 33.65 -11.21 33.96 -10.57C34.28 -9.93 34.8 -9.38 35.52 -8.92C36.24 -8.46 37.22 -8.05 38.47 -7.67C39.69 -7.32 40.56 -7.04 41.09 -6.85C41.62 -6.65 42.02 -6.42 42.28 -6.15C42.54 -5.88 42.67 -5.51 42.67 -5.04C42.67 -4.37 42.42 -3.92 41.92 -3.71C41.41 -3.5 40.55 -3.39 39.34 -3.39C38.44 -3.39 37.5 -3.5 36.51 -3.71C35.52 -3.92 34.61 -4.22 33.77 -4.59L33.77 -0.76C34.51 -0.42 35.41 -0.16 36.44 0.01Z M49.59 -18.03L49.59 0L54.1 0L54.1 -7.14L61.15 -7.14L61.15 0L65.66 0L65.66 -18.03L61.15 -18.03L61.15 -10.89L54.1 -10.89L54.1 -18.03Z M68.52 -18.03L68.52 0L73.02 0L73.02 -18.03Z M85.68 -18.03L85.68 0L98.98 0L98.98 -3.47L90.19 -3.47L90.19 -7.25L97.94 -7.25L97.94 -10.78L90.19 -10.78L90.19 -14.56L98.98 -14.56L98.98 -18.03Z M106.46 -9.07L99.88 0L105.31 0L109.17 -5.46L113.06 0L118.5 0L111.92 -9.07L118.3 -18.03L112.92 -18.03L109.17 -12.66L105.45 -18.03L100.07 -18.03Z M120.92 -2.13C122.59 -0.52 124.98 0.28 128.1 0.28C130.1 0.28 131.92 0 133.56 -0.56L133.56 -4.54C131.97 -3.88 130.27 -3.56 128.46 -3.56C126.63 -3.56 125.27 -3.99 124.36 -4.86C123.46 -5.73 123 -7.07 123 -8.88C123 -10.8 123.44 -12.21 124.31 -13.1C125.17 -14 126.54 -14.45 128.41 -14.45C130.2 -14.45 131.91 -14.11 133.53 -13.44L133.53 -17.39C132.67 -17.69 131.81 -17.92 130.94 -18.07C130.07 -18.23 129.12 -18.31 128.07 -18.31C124.88 -18.31 122.47 -17.5 120.85 -15.88C119.22 -14.25 118.41 -11.92 118.41 -8.88C118.41 -5.98 119.25 -3.73 120.92 -2.13Z M135.86 -18.03L135.86 0L140.36 0L140.36 -7.14L147.42 -7.14L147.42 0L151.93 0L151.93 -18.03L147.42 -18.03L147.42 -10.89L140.36 -10.89L140.36 -18.03Z M161.11 -18.03L154.22 0L158.93 0L160.52 -4.09L166.54 -4.09L168.17 0L172.87 0L165.98 -18.03ZM165.93 -7.42L161.14 -7.42L163.52 -13.69Z M175.17 -18.03L175.17 0L179.68 0L179.68 -10.75L187.35 0L191.24 0L191.24 -18.03L186.7 -18.03L186.7 -7.25L179.03 -18.03Z M195.99 -2.07C197.62 -0.5 199.99 0.28 203.08 0.28C204.63 0.28 205.98 0.13 207.12 -0.17C208.25 -0.47 209.19 -0.85 209.92 -1.32L209.92 -10.25L202.24 -10.25L202.24 -7.42L206.14 -7.42L206.14 -4C205.2 -3.71 204.19 -3.56 203.11 -3.56C201.45 -3.56 200.2 -3.98 199.37 -4.83C198.54 -5.68 198.13 -6.99 198.13 -8.76C198.13 -10.72 198.57 -12.16 199.46 -13.08C200.34 -13.99 201.76 -14.45 203.7 -14.45C205.73 -14.45 207.46 -14.19 208.88 -13.66L208.88 -17.53C207.31 -18.05 205.47 -18.31 203.36 -18.31C200.17 -18.31 197.74 -17.48 196.06 -15.82C194.38 -14.16 193.54 -11.81 193.54 -8.76C193.54 -5.87 194.35 -3.64 195.99 -2.07Z M212.21 -18.03L212.21 0L225.51 0L225.51 -3.47L216.72 -3.47L216.72 -7.25L224.48 -7.25L224.48 -10.78L216.72 -10.78L216.72 -14.56L225.51 -14.56L225.51 -18.03Z"/></g><rect id="SvgjsRect1450" width="35.765" height="1" fill="#454545" transform="translate(0, 99.69999999999999)" light-content="false"/><g id="SvgjsG1451" class="text" transform="translate(44.864999999999995, 102.94999999999999) scale(1)" light-content="false" fill="#454545"><path d="M3.28 -6.48L1.91 0L3.53 0L4.9 -6.48L7.26 -6.48L7.52 -7.73L1.16 -7.73L0.9 -6.48Z M8.5 -8.09L6.78 0L8.4 0L9.25 -4.03C9.46 -4.21 9.7 -4.35 9.97 -4.46C10.24 -4.57 10.5 -4.62 10.75 -4.62C11.09 -4.62 11.33 -4.57 11.47 -4.48C11.62 -4.38 11.69 -4.22 11.69 -4C11.69 -3.86 11.67 -3.72 11.64 -3.56L10.88 0L12.5 0L13.27 -3.65C13.32 -3.89 13.34 -4.11 13.34 -4.31C13.34 -4.8 13.19 -5.18 12.89 -5.43C12.59 -5.68 12.15 -5.81 11.57 -5.81C11.18 -5.81 10.82 -5.75 10.46 -5.65C10.11 -5.54 9.79 -5.39 9.5 -5.21L10.12 -8.09Z M14.81 -0.44C15.28 -0.07 15.93 0.12 16.75 0.12C17.62 0.12 18.34 0 18.91 -0.24L19.15 -1.39C18.91 -1.3 18.63 -1.23 18.3 -1.18C17.97 -1.12 17.66 -1.09 17.35 -1.09C16.88 -1.09 16.51 -1.13 16.25 -1.2C15.99 -1.27 15.81 -1.39 15.71 -1.56C15.6 -1.73 15.56 -1.97 15.56 -2.28L19.68 -2.28L19.9 -3.31C19.94 -3.54 19.97 -3.76 19.97 -3.95C19.97 -4.52 19.77 -4.98 19.39 -5.31C19 -5.64 18.44 -5.81 17.7 -5.81C16.66 -5.81 15.86 -5.56 15.31 -5.05C14.76 -4.55 14.38 -3.82 14.18 -2.86C14.13 -2.58 14.1 -2.32 14.1 -2.08C14.1 -1.36 14.34 -0.81 14.81 -0.44ZM18.48 -3.28L15.78 -3.28C15.88 -3.76 16.07 -4.11 16.33 -4.33C16.59 -4.54 16.98 -4.64 17.51 -4.64C18.22 -4.64 18.58 -4.39 18.58 -3.89C18.58 -3.8 18.56 -3.7 18.54 -3.59Z M25.74 -1.98L24.71 0L26.1 0L27.14 -1.98L28.93 -1.98L27.9 0L29.29 0L30.34 -1.98L31.87 -1.98L32.09 -3.05L30.9 -3.05L31.75 -4.68L32.96 -4.68L33.2 -5.76L32.33 -5.76L33.36 -7.73L31.96 -7.73L30.92 -5.76L29.14 -5.76L30.17 -7.73L28.76 -7.73L27.73 -5.76L26.16 -5.76L25.92 -4.68L27.16 -4.68L26.3 -3.05L25.04 -3.05L24.83 -1.98ZM29.5 -3.05L27.71 -3.05L28.56 -4.68L30.35 -4.68Z M35.45 -6.26L34.13 0L35.75 0L37.42 -7.85L34.44 -7.42L34.15 -6.06Z M42.76 -0.65C43.34 -0.14 44.14 0.12 45.17 0.12C46 0.12 46.8 0 47.56 -0.23L47.86 -1.66C47.14 -1.38 46.38 -1.25 45.6 -1.25C44.87 -1.25 44.34 -1.38 44.02 -1.64C43.69 -1.9 43.52 -2.3 43.52 -2.83C43.52 -3.13 43.56 -3.45 43.64 -3.79C43.84 -4.7 44.17 -5.38 44.65 -5.81C45.13 -6.25 45.81 -6.47 46.68 -6.47C47.46 -6.47 48.16 -6.33 48.78 -6.05L49.08 -7.46C48.42 -7.72 47.68 -7.85 46.86 -7.85C44.19 -7.85 42.57 -6.5 42 -3.79C41.93 -3.43 41.89 -3.1 41.89 -2.78C41.89 -1.88 42.18 -1.17 42.76 -0.65Z M49.54 -5.69L48.34 0L49.96 0L50.8 -3.97C51.05 -4.1 51.39 -4.22 51.8 -4.34C52.22 -4.45 52.6 -4.54 52.96 -4.58L53.21 -5.81C52.83 -5.76 52.44 -5.67 52.04 -5.54C51.63 -5.42 51.28 -5.27 50.99 -5.1L51.04 -5.69Z M53.23 2.07C53.55 2.1 53.82 2.11 54.02 2.11C55.26 2.11 56.18 1.89 56.8 1.46C57.41 1.02 57.8 0.4 57.97 -0.4L59.09 -5.69L57.47 -5.69L56.62 -1.66C56.4 -1.48 56.16 -1.34 55.9 -1.23C55.64 -1.12 55.38 -1.07 55.1 -1.07C54.77 -1.07 54.53 -1.12 54.39 -1.22C54.25 -1.32 54.18 -1.48 54.18 -1.69C54.18 -1.8 54.2 -1.96 54.24 -2.16L54.98 -5.69L53.36 -5.69L52.61 -2.12C52.57 -1.91 52.55 -1.73 52.55 -1.58C52.55 -1.06 52.71 -0.65 53.03 -0.34C53.35 -0.03 53.77 0.12 54.29 0.12C55.06 0.12 55.78 -0.1 56.42 -0.54L56.35 -0.18C56.19 0.54 55.42 0.9 54.02 0.9C53.84 0.9 53.62 0.89 53.38 0.86C53.13 0.83 52.93 0.79 52.78 0.74L52.51 1.98C52.66 2.01 52.9 2.04 53.23 2.07Z M60.31 -5.69L58.56 2.59L60.18 2.59L60.79 -0.31C61.18 -0.02 61.69 0.12 62.33 0.12C63.24 0.12 63.97 -0.12 64.52 -0.61C65.07 -1.09 65.45 -1.84 65.66 -2.86C65.74 -3.22 65.77 -3.54 65.77 -3.84C65.77 -4.5 65.59 -5 65.23 -5.32C64.87 -5.65 64.36 -5.81 63.68 -5.81C63.29 -5.81 62.94 -5.75 62.62 -5.65C62.3 -5.54 61.99 -5.38 61.69 -5.16L61.72 -5.69ZM63.37 -1.51C63.06 -1.21 62.66 -1.07 62.17 -1.07C61.92 -1.07 61.7 -1.1 61.53 -1.18C61.36 -1.25 61.2 -1.36 61.04 -1.5L61.6 -4.1C62.02 -4.45 62.48 -4.62 62.98 -4.62C63.38 -4.62 63.68 -4.54 63.86 -4.39C64.04 -4.24 64.13 -4 64.13 -3.66C64.13 -3.46 64.1 -3.2 64.03 -2.88C63.9 -2.26 63.67 -1.8 63.37 -1.51Z M67.23 -0.24C67.5 0 67.89 0.12 68.41 0.12C68.91 0.12 69.35 0.05 69.73 -0.1L69.97 -1.21C69.71 -1.13 69.47 -1.09 69.25 -1.09C68.98 -1.09 68.79 -1.13 68.67 -1.2C68.55 -1.27 68.5 -1.4 68.5 -1.57C68.5 -1.67 68.51 -1.78 68.53 -1.91L69.07 -4.44L70.42 -4.44L70.78 -5.69L69.34 -5.69L69.7 -7.39L67.98 -6.91L67.72 -5.69L66.91 -5.69L66.65 -4.44L67.45 -4.44L66.89 -1.8C66.85 -1.58 66.83 -1.4 66.83 -1.25C66.83 -0.82 66.96 -0.48 67.23 -0.24Z M71.21 -0.41C71.64 -0.06 72.28 0.12 73.12 0.12C74.21 0.12 75.06 -0.13 75.65 -0.62C76.24 -1.12 76.64 -1.86 76.85 -2.84C76.91 -3.18 76.94 -3.47 76.94 -3.71C76.94 -4.39 76.73 -4.91 76.3 -5.27C75.87 -5.63 75.23 -5.81 74.38 -5.81C73.3 -5.81 72.47 -5.56 71.87 -5.06C71.28 -4.56 70.88 -3.82 70.67 -2.84C70.6 -2.52 70.56 -2.22 70.57 -1.97C70.57 -1.29 70.79 -0.77 71.21 -0.41ZM74.61 -1.62C74.34 -1.38 73.94 -1.26 73.42 -1.26C72.99 -1.26 72.69 -1.33 72.5 -1.46C72.31 -1.6 72.22 -1.83 72.22 -2.15C72.22 -2.32 72.25 -2.55 72.31 -2.84C72.43 -3.42 72.63 -3.83 72.9 -4.07C73.17 -4.31 73.57 -4.43 74.09 -4.43C74.52 -4.43 74.83 -4.36 75.01 -4.22C75.2 -4.09 75.29 -3.86 75.29 -3.53C75.29 -3.32 75.26 -3.09 75.2 -2.84C75.08 -2.27 74.88 -1.86 74.61 -1.62Z M83.33 -7.73L81.7 0L87.24 0L87.5 -1.25L83.58 -1.25L84 -3.24L87.48 -3.24L87.74 -4.49L84.26 -4.49L84.68 -6.47L88.61 -6.47L88.87 -7.73Z M90.62 -2.89L87.83 0L89.59 0L91.25 -1.74L92.18 0L93.95 0L92.39 -2.89L95.06 -5.69L93.31 -5.69L91.74 -4.03L90.86 -5.69L89.11 -5.69Z M95.52 -0.44C95.98 -0.07 96.62 0.12 97.42 0.12C98.17 0.12 98.84 0 99.43 -0.23L99.68 -1.43C99.18 -1.2 98.63 -1.09 98.04 -1.09C97.47 -1.09 97.07 -1.18 96.83 -1.34C96.59 -1.51 96.47 -1.78 96.47 -2.15C96.47 -2.36 96.5 -2.6 96.55 -2.84C96.69 -3.48 96.94 -3.94 97.3 -4.2C97.67 -4.46 98.16 -4.6 98.8 -4.6C99.4 -4.6 99.9 -4.49 100.27 -4.28L100.52 -5.45C100.28 -5.58 100.01 -5.67 99.74 -5.72C99.46 -5.78 99.12 -5.81 98.72 -5.81C96.6 -5.81 95.32 -4.82 94.91 -2.84C94.85 -2.59 94.82 -2.33 94.82 -2.06C94.82 -1.36 95.06 -0.82 95.52 -0.44Z M102.23 -8.09L100.51 0L102.13 0L102.98 -4.03C103.19 -4.21 103.43 -4.35 103.7 -4.46C103.98 -4.57 104.24 -4.62 104.48 -4.62C104.82 -4.62 105.06 -4.57 105.2 -4.48C105.35 -4.38 105.42 -4.22 105.42 -4C105.42 -3.86 105.4 -3.72 105.37 -3.56L104.62 0L106.24 0L107 -3.65C107.05 -3.89 107.08 -4.11 107.08 -4.31C107.08 -4.8 106.93 -5.18 106.63 -5.43C106.33 -5.68 105.88 -5.81 105.3 -5.81C104.92 -5.81 104.55 -5.75 104.2 -5.65C103.84 -5.54 103.52 -5.39 103.24 -5.21L103.85 -8.09Z M108.34 -0.33C108.72 -0.03 109.24 0.12 109.9 0.12C110.29 0.12 110.64 0.07 110.96 -0.04C111.28 -0.15 111.59 -0.31 111.89 -0.53L111.88 0L113.27 0L114.47 -5.69L112.85 -5.69L112.78 -5.32C112.58 -5.5 112.37 -5.63 112.14 -5.7C111.91 -5.77 111.63 -5.81 111.3 -5.81C110.76 -5.81 110.25 -5.68 109.78 -5.42C109.31 -5.16 108.91 -4.78 108.58 -4.3C108.24 -3.81 108 -3.23 107.86 -2.57C107.79 -2.23 107.76 -1.96 107.76 -1.74C107.76 -1.1 107.95 -0.63 108.34 -0.33ZM111.32 -1.19C111.1 -1.11 110.86 -1.07 110.59 -1.07C110.18 -1.07 109.88 -1.13 109.69 -1.26C109.51 -1.39 109.42 -1.61 109.42 -1.92C109.42 -2.12 109.44 -2.34 109.5 -2.57C109.64 -3.24 109.88 -3.75 110.21 -4.1C110.55 -4.45 110.96 -4.62 111.47 -4.62C111.92 -4.62 112.26 -4.45 112.51 -4.12L111.98 -1.58C111.76 -1.4 111.54 -1.27 111.32 -1.19Z M115.85 -5.69L114.65 0L116.27 0L117.12 -4.03C117.34 -4.21 117.58 -4.35 117.85 -4.46C118.12 -4.57 118.4 -4.62 118.69 -4.62C119 -4.62 119.23 -4.57 119.36 -4.48C119.49 -4.38 119.56 -4.22 119.56 -4C119.56 -3.86 119.54 -3.72 119.51 -3.56L118.75 0L120.37 0L121.14 -3.65C121.19 -3.89 121.21 -4.11 121.21 -4.32C121.21 -4.81 121.06 -5.18 120.77 -5.43C120.47 -5.68 120.03 -5.81 119.44 -5.81C119.06 -5.81 118.68 -5.75 118.31 -5.62C117.93 -5.5 117.6 -5.34 117.3 -5.15L117.35 -5.69Z M122.86 2.07C123.19 2.1 123.45 2.11 123.66 2.11C124.81 2.11 125.7 1.89 126.31 1.44C126.93 0.99 127.32 0.38 127.49 -0.4L128.6 -5.69L127.21 -5.69L127.01 -5.16C126.79 -5.38 126.56 -5.55 126.32 -5.65C126.07 -5.76 125.76 -5.81 125.38 -5.81C124.49 -5.81 123.76 -5.55 123.19 -5.02C122.61 -4.5 122.22 -3.72 122.02 -2.7C121.96 -2.44 121.93 -2.19 121.93 -1.93C121.93 -1.28 122.13 -0.79 122.53 -0.47C122.93 -0.16 123.47 0 124.15 0C124.81 0 125.38 -0.14 125.87 -0.43L125.81 -0.13C125.73 0.24 125.5 0.5 125.14 0.66C124.77 0.82 124.28 0.9 123.66 0.9C123.48 0.9 123.26 0.89 123.01 0.86C122.76 0.83 122.56 0.79 122.41 0.74L122.15 1.98C122.3 2.01 122.54 2.04 122.86 2.07ZM126.12 -1.62C125.72 -1.33 125.26 -1.19 124.75 -1.19C124.34 -1.19 124.04 -1.25 123.86 -1.38C123.68 -1.51 123.59 -1.73 123.59 -2.04C123.59 -2.24 123.62 -2.46 123.67 -2.71C123.81 -3.34 124.02 -3.82 124.31 -4.14C124.61 -4.46 125 -4.62 125.51 -4.62C125.76 -4.62 125.98 -4.58 126.16 -4.49C126.34 -4.41 126.5 -4.28 126.65 -4.1Z M129.41 -0.44C129.88 -0.07 130.53 0.12 131.35 0.12C132.22 0.12 132.94 0 133.51 -0.24L133.75 -1.39C133.51 -1.3 133.23 -1.23 132.9 -1.18C132.57 -1.12 132.26 -1.09 131.95 -1.09C131.48 -1.09 131.11 -1.13 130.85 -1.2C130.59 -1.27 130.41 -1.39 130.31 -1.56C130.2 -1.73 130.16 -1.97 130.16 -2.28L134.28 -2.28L134.5 -3.31C134.54 -3.54 134.57 -3.76 134.57 -3.95C134.57 -4.52 134.37 -4.98 133.99 -5.31C133.6 -5.64 133.04 -5.81 132.3 -5.81C131.26 -5.81 130.46 -5.56 129.91 -5.05C129.36 -4.55 128.98 -3.82 128.78 -2.86C128.73 -2.58 128.7 -2.32 128.7 -2.08C128.7 -1.36 128.94 -0.81 129.41 -0.44ZM133.08 -3.28L130.38 -3.28C130.48 -3.76 130.67 -4.11 130.93 -4.33C131.19 -4.54 131.58 -4.64 132.11 -4.64C132.82 -4.64 133.18 -4.39 133.18 -3.89C133.18 -3.8 133.16 -3.7 133.14 -3.59Z"/></g><rect id="SvgjsRect1452" width="35.764999999999986" height="1" fill="#454545" transform="translate(189.435, 99.69999999999999)" light-content="false"/></g></svg>